<?xml version="1.0" encoding="utf-8"?>
<!-- Generator: Adobe Illustrator 19.0.0, SVG Export Plug-In . SVG Version: 6.00 Build 0)  -->
<svg version="1.1" xmlns="http://www.w3.org/2000/svg" xmlns:xlink="http://www.w3.org/1999/xlink" x="0px" y="0px"
	 viewBox="0 0 50 50" style="enable-background:new 0 0 50 50;" xml:space="preserve">
<style type="text/css">
	.st0{opacity:0.4;enable-background:new    ;}
	.st1{clip-path:url(#SVGID_2_);}
	.st2{clip-path:url(#SVGID_4_);}
	.st3{clip-path:url(#SVGID_6_);}
	.st4{display:none;}
	.st5{display:inline;opacity:0.4;enable-background:new    ;}
	.st6{clip-path:url(#XMLID_18_);}
	.st7{clip-path:url(#XMLID_19_);}
	.st8{clip-path:url(#XMLID_20_);}
	.st9{clip-path:url(#XMLID_21_);}
	.st10{clip-path:url(#XMLID_22_);}
</style>
<g id="Layer_1">
	<g class="st0">
		<g>
			<defs>
				<rect id="SVGID_1_" x="5" y="9" width="40" height="32"/>
			</defs>
			<clipPath id="SVGID_2_">
				<use xlink:href="#SVGID_1_"  style="overflow:visible;"/>
			</clipPath>
			<g class="st1">
				<defs>
					<path id="SVGID_3_" d="M42.1,13.2v0.2c0,0.9-0.3,1.9-1,2.9c-0.7,1.1-1.4,1.9-2.2,2.6C36,21.2,33,23.6,29.9,26
						c-0.1,0.1-0.3,0.3-0.8,0.7c-0.4,0.4-0.8,0.6-1,0.8c-0.3,0.2-0.6,0.4-1,0.7c-0.4,0.3-0.8,0.5-1.1,0.6C25.6,29,25.3,29,25,29h0h0
						c-0.3,0-0.6-0.1-1-0.2c-0.3-0.1-0.7-0.3-1.1-0.6c-0.4-0.3-0.7-0.5-1-0.7c-0.3-0.2-0.6-0.5-1-0.8c-0.4-0.4-0.7-0.6-0.8-0.7
						C17,23.6,14,21.2,11.1,19c-2.2-1.7-3.3-3.8-3.3-6.3c0-0.2,0.1-0.4,0.2-0.5c0.1-0.1,0.3-0.2,0.5-0.2h32.8
						c0.1,0.1,0.2,0.1,0.3,0.1c0.1,0,0.2,0,0.2,0.2c0,0.1,0.1,0.2,0.1,0.2c0,0,0.1,0.1,0.1,0.3c0,0.2,0,0.3,0,0.3L42.1,13.2
						L42.1,13.2z M42.1,36.9c0,0.2-0.1,0.4-0.2,0.5c-0.1,0.1-0.3,0.2-0.5,0.2H8.6c-0.2,0-0.4-0.1-0.5-0.2c-0.1-0.1-0.2-0.3-0.2-0.5
						V19.8c0.5,0.5,1,1,1.5,1.5c4,3.1,7.2,5.6,9.5,7.5c0.8,0.6,1.4,1.1,1.9,1.5c0.5,0.4,1.1,0.7,1.9,1.1c0.8,0.4,1.6,0.5,2.3,0.5h0
						h0c0.7,0,1.5-0.2,2.3-0.5c0.8-0.4,1.5-0.7,1.9-1.1c0.5-0.4,1.1-0.9,1.9-1.5c2.3-2,5.5-4.5,9.5-7.5c0.5-0.4,1.1-0.9,1.5-1.5
						V36.9z M43.9,10.1c-0.7-0.7-1.5-1-2.5-1H8.6c-1,0-1.8,0.3-2.5,1c-0.7,0.7-1,1.5-1,2.5v24.3c0,1,0.3,1.8,1,2.5
						c0.7,0.7,1.5,1,2.5,1h32.8c1,0,1.8-0.3,2.5-1c0.7-0.7,1-1.5,1-2.5V12.6C45,11.7,44.6,10.8,43.9,10.1z"/>
				</defs>
				<clipPath id="SVGID_4_">
					<use xlink:href="#SVGID_3_"  style="overflow:visible;"/>
				</clipPath>
				<g class="st2">
					<defs>
						<rect id="SVGID_5_" x="5" y="9" width="40" height="32"/>
					</defs>
					<clipPath id="SVGID_6_">
						<use xlink:href="#SVGID_5_"  style="overflow:visible;"/>
					</clipPath>
					<rect x="-5" y="-0.9" class="st3" width="60" height="51.4"/>
				</g>
			</g>
		</g>
	</g>
</g>
<g id="Layer_2" class="st4">
	<g id="XMLID_2_" class="st5">
		<g id="XMLID_3_">
			<defs>
				<rect id="XMLID_4_" x="9" y="4" width="32" height="43"/>
			</defs>
			<clipPath id="XMLID_18_">
				<use xlink:href="#XMLID_4_"  style="overflow:visible;"/>
			</clipPath>
			<g id="XMLID_10_" class="st6">
				<defs>
					<path id="XMLID_11_" d="M37.8,34.9c0,4.6-3.7,8.3-8.3,8.3h-9.2c-4.6,0-8.3-3.7-8.3-8.3V21.5h25.7V34.9z M16.6,12.2
						c0-2.8,2.3-5.1,5.1-5.1h6.4c2.8,0,5.1,2.3,5.1,5.1v6.2H16.6V12.2z M39.4,18.4h-3v-6.2c0-4.5-3.7-8.2-8.2-8.2h-6.4
						c-4.5,0-8.2,3.7-8.2,8.2v6.2h-3c-0.8,0-1.5,0.7-1.5,1.5v15c0,6.2,5.1,11.3,11.3,11.3h9.2c6.2,0,11.3-5.1,11.3-11.3v-15
						C40.9,19.1,40.2,18.4,39.4,18.4z"/>
				</defs>
				<clipPath id="XMLID_19_">
					<use xlink:href="#XMLID_11_"  style="overflow:visible;"/>
				</clipPath>
				<g id="XMLID_15_" class="st7">
					<defs>
						<rect id="XMLID_16_" x="9" y="4" width="32" height="43"/>
					</defs>
					<clipPath id="XMLID_20_">
						<use xlink:href="#XMLID_16_"  style="overflow:visible;"/>
					</clipPath>
					<rect id="XMLID_17_" x="-1" y="-6" class="st8" width="51.9" height="62.2"/>
				</g>
			</g>
			<g id="XMLID_5_" class="st6">
				<defs>
					<path id="XMLID_6_" d="M23.4,38.1c0,0.8,0.7,1.5,1.5,1.5c0.8,0,1.5-0.7,1.5-1.5v-4.4c0.2-0.3,0.3-0.6,0.3-0.9
						c0-0.8-0.7-1.5-1.5-1.5h-0.6c-0.8,0-1.5,0.7-1.5,1.5c0,0.3,0.1,0.6,0.3,0.9V38.1z"/>
				</defs>
				<clipPath id="XMLID_21_">
					<use xlink:href="#XMLID_6_"  style="overflow:visible;"/>
				</clipPath>
				<g id="XMLID_7_" class="st9">
					<defs>
						<rect id="XMLID_8_" x="9" y="4" width="32" height="43"/>
					</defs>
					<clipPath id="XMLID_22_">
						<use xlink:href="#XMLID_8_"  style="overflow:visible;"/>
					</clipPath>
					<rect id="XMLID_9_" x="13.1" y="21.3" class="st10" width="23.6" height="28.3"/>
				</g>
			</g>
		</g>
	</g>
</g>
</svg>
